# xmcd CD database file
#
# Track frame offsets:
#	150
#	12921
#	26512
#	38364
#	50522
#	62470
#	75323
#	91030
#	102712
#	118897
#	128540
#	140829
#	161023
#	177595
#	191320
#	213147
#	231227
#	246169
#	260682
#	282242
#
# Disc length: 4037 seconds
#
# Revision: 2
# Processed by: cddbd v1.5.2PL0 Copyright (c) Steve Scherf et al.
# Submitted via: CDex 1.97
#
DISCID=0e0fc314
DTITLE=Various Artist - Now 100 Hits Country - Disc 2 of 5
DYEAR=2020
DGENRE=Country
TTITLE0=Dr Hook - When You're In Love With A Beautiful Woman
TTITLE1=The Highwaymen (Kris Kristofferson, Johnny Cash, Waylon Jennings and Willie Nelson) - Highwayman
TTITLE2=Dolly Parton - Jolene
TTITLE3=Johnny Cash - I Walk The Line
TTITLE4=Glen Campbell - Galveston
TTITLE5=Lynn Anderson - Rose Garden
TTITLE6=Joe South - Games People Play
TTITLE7=Tennessee Ernie Ford - Sixteen Tons
TTITLE8=Elvis Presley - Green, Green Grass Of Home
TTITLE9=Hank Williams Jr. - Your Cheatin' Heart
TTITLE10=Jim Reeves - I Love You Because
TTITLE11=Squeeze - Labelled With Love
TTITLE12=The Shires - Nashville Grey Skies
TTITLE13=Ward Thomas - Guilty Flowers
TTITLE14=Lee Ann Womack - I Hope You Dance
TTITLE15=John Mayer - In The Blood
TTITLE16=Kacey Musgraves - Follow Your Arrow
TTITLE17=Little Big Town - Girl Crush
TTITLE18=Jessie Buckley - Country Girl
TTITLE19=Rascal Flatts - Life Is A Highway
EXTD=YEAR: 2020
EXTT0=
EXTT1=
EXTT2=
EXTT3=
EXTT4=
EXTT5=
EXTT6=
EXTT7=
EXTT8=
EXTT9=
EXTT10=
EXTT11=
EXTT12=
EXTT13=
EXTT14=
EXTT15=
EXTT16=
EXTT17=
EXTT18=
EXTT19=
PLAYORDER=
